<?xml version="1.0" encoding="UTF-8"?>
<mxfile modified="2019-08-16T21:59:55.242Z" host="www.draw.io" agent="Mozilla/5.0 (Macintosh; Intel Mac OS X 10_14_6) AppleWebKit/537.36 (KHTML, like Gecko) Chrome/75.0.3770.142 Safari/537.36" version="11.1.4" etag="3qJyaHXFm1dLRFvAg-Kq" compressed="false">
  <diagram id="dce2adf3-769a-8d09-6b73-2ba758ee681a" name="Page-1">
    <mxGraphModel dx="1186" dy="671" grid="1" gridSize="10" guides="1" tooltips="1" connect="1" arrows="1" fold="1" page="0" pageScale="1" pageWidth="827" pageHeight="1169" background="#ffffff" math="0" shadow="0">
      <root>
        <mxCell id="0"/>
        <mxCell id="1" parent="0"/>
        <mxCell id="4bea26cb794fe34c-1" value="Perform Transition&lt;br&gt;Workshop&lt;br&gt;&amp;nbsp;(Cloud Paks for App)" style="rounded=1;fillColor=#f08705;strokeColor=none;shadow=0;gradientColor=none;fontStyle=0;html=1;strokeWidth=2;fontSize=14;fontColor=#FFFFFF;arcSize=7;perimeterSpacing=4;" parent="1" vertex="1">
          <mxGeometry x="650" y="10" width="200" height="60" as="geometry"/>
        </mxCell>
        <mxCell id="4bea26cb794fe34c-29" value="" style="edgeStyle=elbowEdgeStyle;elbow=vertical;strokeWidth=2;endArrow=block;endFill=1;fontStyle=0;html=1;shadow=0;strokeColor=#F08705;fontSize=14;" parent="1" source="4bea26cb794fe34c-1" edge="1">
          <mxGeometry y="-30" width="100" height="100" as="geometry">
            <mxPoint y="70" as="sourcePoint"/>
            <mxPoint x="750" y="110" as="targetPoint"/>
          </mxGeometry>
        </mxCell>
        <mxCell id="TrHiQEPKYiInoU6uG2qP-14" style="edgeStyle=orthogonalEdgeStyle;rounded=0;orthogonalLoop=1;jettySize=auto;html=1;" edge="1" parent="1" source="TrHiQEPKYiInoU6uG2qP-3" target="TrHiQEPKYiInoU6uG2qP-7">
          <mxGeometry relative="1" as="geometry"/>
        </mxCell>
        <mxCell id="TrHiQEPKYiInoU6uG2qP-15" style="edgeStyle=orthogonalEdgeStyle;rounded=0;orthogonalLoop=1;jettySize=auto;html=1;entryX=0.5;entryY=0;entryDx=0;entryDy=0;" edge="1" parent="1" target="TrHiQEPKYiInoU6uG2qP-6">
          <mxGeometry relative="1" as="geometry">
            <mxPoint x="750" y="182" as="sourcePoint"/>
            <mxPoint x="452" y="303" as="targetPoint"/>
            <Array as="points">
              <mxPoint x="750" y="244"/>
              <mxPoint x="452" y="244"/>
            </Array>
          </mxGeometry>
        </mxCell>
        <mxCell id="TrHiQEPKYiInoU6uG2qP-16" style="edgeStyle=orthogonalEdgeStyle;rounded=0;orthogonalLoop=1;jettySize=auto;html=1;" edge="1" parent="1" source="TrHiQEPKYiInoU6uG2qP-3" target="TrHiQEPKYiInoU6uG2qP-8">
          <mxGeometry relative="1" as="geometry"/>
        </mxCell>
        <mxCell id="TrHiQEPKYiInoU6uG2qP-23" style="edgeStyle=orthogonalEdgeStyle;rounded=0;orthogonalLoop=1;jettySize=auto;html=1;" edge="1" parent="1" source="TrHiQEPKYiInoU6uG2qP-3" target="TrHiQEPKYiInoU6uG2qP-22">
          <mxGeometry relative="1" as="geometry"/>
        </mxCell>
        <mxCell id="TrHiQEPKYiInoU6uG2qP-58" style="edgeStyle=orthogonalEdgeStyle;rounded=0;orthogonalLoop=1;jettySize=auto;html=1;entryX=0.5;entryY=0;entryDx=0;entryDy=0;endArrow=classic;endFill=1;exitX=0.493;exitY=0.967;exitDx=0;exitDy=0;exitPerimeter=0;" edge="1" parent="1">
          <mxGeometry relative="1" as="geometry">
            <mxPoint x="749" y="189" as="sourcePoint"/>
            <mxPoint x="265" y="279" as="targetPoint"/>
            <Array as="points">
              <mxPoint x="749" y="244"/>
              <mxPoint x="265" y="244"/>
            </Array>
          </mxGeometry>
        </mxCell>
        <mxCell id="TrHiQEPKYiInoU6uG2qP-3" value="&lt;font color=&quot;#ffffff&quot;&gt;Is ICP deployed?&lt;/font&gt;" style="html=1;whiteSpace=wrap;aspect=fixed;shape=isoRectangle;fillColor=#004C99;" vertex="1" parent="1">
          <mxGeometry x="675" y="108" width="150" height="90" as="geometry"/>
        </mxCell>
        <mxCell id="TrHiQEPKYiInoU6uG2qP-44" style="edgeStyle=orthogonalEdgeStyle;rounded=0;orthogonalLoop=1;jettySize=auto;html=1;" edge="1" parent="1" source="TrHiQEPKYiInoU6uG2qP-6" target="TrHiQEPKYiInoU6uG2qP-42">
          <mxGeometry relative="1" as="geometry"/>
        </mxCell>
        <mxCell id="TrHiQEPKYiInoU6uG2qP-6" value="Production Workload&lt;br&gt;on ICP" style="rounded=1;fillColor=#004C99;strokeColor=none;shadow=0;gradientColor=none;fontStyle=0;html=1;strokeWidth=2;fontSize=14;fontColor=#FFFFFF;arcSize=7;perimeterSpacing=4;" vertex="1" parent="1">
          <mxGeometry x="376.5" y="289" width="150" height="70" as="geometry"/>
        </mxCell>
        <mxCell id="TrHiQEPKYiInoU6uG2qP-45" style="edgeStyle=orthogonalEdgeStyle;rounded=0;orthogonalLoop=1;jettySize=auto;html=1;endArrow=none;endFill=0;" edge="1" parent="1">
          <mxGeometry relative="1" as="geometry">
            <mxPoint x="622" y="368" as="sourcePoint"/>
            <mxPoint x="960" y="425" as="targetPoint"/>
            <Array as="points">
              <mxPoint x="622" y="395"/>
              <mxPoint x="960" y="395"/>
            </Array>
          </mxGeometry>
        </mxCell>
        <mxCell id="TrHiQEPKYiInoU6uG2qP-7" value="Active Development&lt;br&gt;on ICP" style="rounded=1;fillColor=#004C99;strokeColor=none;shadow=0;gradientColor=none;fontStyle=0;html=1;strokeWidth=2;fontSize=14;fontColor=#FFFFFF;arcSize=7;perimeterSpacing=4;" vertex="1" parent="1">
          <mxGeometry x="546.5" y="289" width="150" height="70" as="geometry"/>
        </mxCell>
        <mxCell id="TrHiQEPKYiInoU6uG2qP-30" style="edgeStyle=orthogonalEdgeStyle;rounded=0;orthogonalLoop=1;jettySize=auto;html=1;entryX=0.511;entryY=0;entryDx=0;entryDy=0;entryPerimeter=0;" edge="1" parent="1">
          <mxGeometry relative="1" as="geometry">
            <mxPoint x="799" y="368" as="sourcePoint"/>
            <mxPoint x="960" y="420" as="targetPoint"/>
            <Array as="points">
              <mxPoint x="799" y="395"/>
              <mxPoint x="960" y="395"/>
            </Array>
          </mxGeometry>
        </mxCell>
        <mxCell id="TrHiQEPKYiInoU6uG2qP-8" value="About to start&amp;nbsp;&lt;br&gt;Development on ICP" style="rounded=1;fillColor=#004C99;strokeColor=none;shadow=0;gradientColor=none;fontStyle=0;html=1;strokeWidth=2;fontSize=14;fontColor=#FFFFFF;arcSize=7;perimeterSpacing=4;" vertex="1" parent="1">
          <mxGeometry x="721.5" y="289" width="150" height="70" as="geometry"/>
        </mxCell>
        <mxCell id="TrHiQEPKYiInoU6uG2qP-20" value="&lt;b&gt;YES&lt;/b&gt;" style="text;html=1;strokeColor=none;fillColor=none;align=center;verticalAlign=middle;whiteSpace=wrap;rounded=0;" vertex="1" parent="1">
          <mxGeometry x="750" y="213" width="40" height="20" as="geometry"/>
        </mxCell>
        <mxCell id="TrHiQEPKYiInoU6uG2qP-29" style="edgeStyle=orthogonalEdgeStyle;rounded=0;orthogonalLoop=1;jettySize=auto;html=1;entryX=0.511;entryY=0.038;entryDx=0;entryDy=0;entryPerimeter=0;endArrow=none;endFill=0;" edge="1" parent="1">
          <mxGeometry relative="1" as="geometry">
            <mxPoint x="1088" y="376" as="sourcePoint"/>
            <mxPoint x="959" y="430" as="targetPoint"/>
            <Array as="points">
              <mxPoint x="1088" y="395"/>
              <mxPoint x="959" y="395"/>
            </Array>
          </mxGeometry>
        </mxCell>
        <mxCell id="TrHiQEPKYiInoU6uG2qP-32" style="edgeStyle=orthogonalEdgeStyle;rounded=0;orthogonalLoop=1;jettySize=auto;html=1;entryX=0.5;entryY=0;entryDx=0;entryDy=0;" edge="1" parent="1" source="TrHiQEPKYiInoU6uG2qP-22" target="TrHiQEPKYiInoU6uG2qP-31">
          <mxGeometry relative="1" as="geometry"/>
        </mxCell>
        <mxCell id="TrHiQEPKYiInoU6uG2qP-22" value="&lt;font color=&quot;#ffffff&quot; style=&quot;font-size: 14px&quot;&gt;Is OpenShift&lt;br&gt;&amp;nbsp;deployed?&lt;/font&gt;" style="html=1;whiteSpace=wrap;aspect=fixed;shape=isoRectangle;fillColor=#FF0000;" vertex="1" parent="1">
          <mxGeometry x="1020" y="289" width="133" height="80" as="geometry"/>
        </mxCell>
        <mxCell id="TrHiQEPKYiInoU6uG2qP-24" value="&lt;b&gt;NO&lt;/b&gt;" style="text;html=1;strokeColor=none;fillColor=none;align=center;verticalAlign=middle;whiteSpace=wrap;rounded=0;" vertex="1" parent="1">
          <mxGeometry x="1048" y="369" width="40" height="20" as="geometry"/>
        </mxCell>
        <mxCell id="TrHiQEPKYiInoU6uG2qP-36" style="edgeStyle=orthogonalEdgeStyle;rounded=0;orthogonalLoop=1;jettySize=auto;html=1;" edge="1" parent="1" source="TrHiQEPKYiInoU6uG2qP-25" target="TrHiQEPKYiInoU6uG2qP-34">
          <mxGeometry relative="1" as="geometry"/>
        </mxCell>
        <mxCell id="TrHiQEPKYiInoU6uG2qP-40" style="edgeStyle=orthogonalEdgeStyle;rounded=0;orthogonalLoop=1;jettySize=auto;html=1;" edge="1" parent="1" source="TrHiQEPKYiInoU6uG2qP-25">
          <mxGeometry relative="1" as="geometry">
            <mxPoint x="810" y="510" as="targetPoint"/>
          </mxGeometry>
        </mxCell>
        <mxCell id="TrHiQEPKYiInoU6uG2qP-25" value="&lt;font color=&quot;#ffffff&quot;&gt;&lt;span style=&quot;font-size: 14px&quot;&gt;Production&lt;br&gt;in 2019?&lt;br&gt;&lt;/span&gt;&lt;/font&gt;" style="html=1;whiteSpace=wrap;aspect=fixed;shape=isoRectangle;fillColor=#FF0000;" vertex="1" parent="1">
          <mxGeometry x="894" y="420" width="133" height="80" as="geometry"/>
        </mxCell>
        <mxCell id="TrHiQEPKYiInoU6uG2qP-31" value="Deploy Cloud Paks &lt;br&gt;for Application&amp;nbsp;&lt;br&gt;on OpenShift" style="rounded=1;fillColor=#FF0000;strokeColor=none;shadow=0;gradientColor=none;fontStyle=0;html=1;strokeWidth=2;fontSize=14;fontColor=#FFFFFF;arcSize=7;perimeterSpacing=4;" vertex="1" parent="1">
          <mxGeometry x="1170" y="425" width="150" height="70" as="geometry"/>
        </mxCell>
        <mxCell id="TrHiQEPKYiInoU6uG2qP-33" value="&lt;b&gt;YES&lt;/b&gt;" style="text;html=1;strokeColor=none;fillColor=none;align=center;verticalAlign=middle;whiteSpace=wrap;rounded=0;" vertex="1" parent="1">
          <mxGeometry x="1170" y="304" width="40" height="20" as="geometry"/>
        </mxCell>
        <mxCell id="TrHiQEPKYiInoU6uG2qP-51" style="edgeStyle=orthogonalEdgeStyle;rounded=0;orthogonalLoop=1;jettySize=auto;html=1;entryX=0.5;entryY=0;entryDx=0;entryDy=0;" edge="1" parent="1" source="TrHiQEPKYiInoU6uG2qP-34" target="TrHiQEPKYiInoU6uG2qP-46">
          <mxGeometry relative="1" as="geometry">
            <Array as="points">
              <mxPoint x="1115" y="600"/>
              <mxPoint x="811" y="600"/>
            </Array>
          </mxGeometry>
        </mxCell>
        <mxCell id="TrHiQEPKYiInoU6uG2qP-34" value="Cloud Paks on&lt;br&gt;RHOCP 3.11" style="rounded=1;fillColor=#FF0000;strokeColor=none;shadow=0;gradientColor=none;fontStyle=0;html=1;strokeWidth=2;fontSize=14;fontColor=#FFFFFF;arcSize=7;perimeterSpacing=4;" vertex="1" parent="1">
          <mxGeometry x="1040" y="510" width="150" height="70" as="geometry"/>
        </mxCell>
        <mxCell id="TrHiQEPKYiInoU6uG2qP-50" style="edgeStyle=orthogonalEdgeStyle;rounded=0;orthogonalLoop=1;jettySize=auto;html=1;entryX=0.5;entryY=0;entryDx=0;entryDy=0;" edge="1" parent="1" source="TrHiQEPKYiInoU6uG2qP-35" target="TrHiQEPKYiInoU6uG2qP-46">
          <mxGeometry relative="1" as="geometry"/>
        </mxCell>
        <UserObject label="Cloud Paks for App &lt;br&gt;on&amp;nbsp;RHOCP 4.1" link="www.google.com" id="TrHiQEPKYiInoU6uG2qP-35">
          <mxCell style="rounded=1;fillColor=#FF0000;strokeColor=none;shadow=0;gradientColor=none;fontStyle=0;html=1;strokeWidth=2;fontSize=14;fontColor=#FFFFFF;arcSize=7;perimeterSpacing=4;" vertex="1" parent="1">
            <mxGeometry x="736" y="510" width="150" height="70" as="geometry"/>
          </mxCell>
        </UserObject>
        <mxCell id="TrHiQEPKYiInoU6uG2qP-37" value="&lt;b&gt;YES&lt;/b&gt;" style="text;html=1;strokeColor=none;fillColor=none;align=center;verticalAlign=middle;whiteSpace=wrap;rounded=0;" vertex="1" parent="1">
          <mxGeometry x="1046.5" y="439.5" width="40" height="20" as="geometry"/>
        </mxCell>
        <mxCell id="TrHiQEPKYiInoU6uG2qP-41" value="&lt;b&gt;NO&lt;/b&gt;" style="text;html=1;strokeColor=none;fillColor=none;align=center;verticalAlign=middle;whiteSpace=wrap;rounded=0;" vertex="1" parent="1">
          <mxGeometry x="840" y="440" width="40" height="20" as="geometry"/>
        </mxCell>
        <mxCell id="TrHiQEPKYiInoU6uG2qP-52" style="edgeStyle=orthogonalEdgeStyle;rounded=0;orthogonalLoop=1;jettySize=auto;html=1;entryX=0.5;entryY=0;entryDx=0;entryDy=0;" edge="1" parent="1" source="TrHiQEPKYiInoU6uG2qP-42" target="TrHiQEPKYiInoU6uG2qP-46">
          <mxGeometry relative="1" as="geometry">
            <Array as="points">
              <mxPoint x="535" y="600"/>
              <mxPoint x="811" y="600"/>
            </Array>
          </mxGeometry>
        </mxCell>
        <mxCell id="TrHiQEPKYiInoU6uG2qP-42" value="Continue on&amp;nbsp;&lt;br&gt;ICP" style="rounded=1;fillColor=#004C99;strokeColor=none;shadow=0;gradientColor=none;fontStyle=0;html=1;strokeWidth=2;fontSize=14;fontColor=#FFFFFF;arcSize=7;perimeterSpacing=4;" vertex="1" parent="1">
          <mxGeometry x="460" y="510" width="150" height="70" as="geometry"/>
        </mxCell>
        <mxCell id="TrHiQEPKYiInoU6uG2qP-46" value="Cloud Paks for App&lt;br&gt;on&amp;nbsp;RHOCP 4.2" style="rounded=1;fillColor=#FF0000;strokeColor=none;shadow=0;gradientColor=none;fontStyle=0;html=1;strokeWidth=2;fontSize=14;fontColor=#FFFFFF;arcSize=7;perimeterSpacing=4;" vertex="1" parent="1">
          <mxGeometry x="736" y="640" width="150" height="70" as="geometry"/>
        </mxCell>
        <mxCell id="TrHiQEPKYiInoU6uG2qP-57" style="edgeStyle=orthogonalEdgeStyle;rounded=0;orthogonalLoop=1;jettySize=auto;html=1;entryX=0.5;entryY=0;entryDx=0;entryDy=0;endArrow=none;endFill=0;" edge="1" parent="1">
          <mxGeometry relative="1" as="geometry">
            <mxPoint x="265" y="358" as="sourcePoint"/>
            <mxPoint x="535" y="501" as="targetPoint"/>
            <Array as="points">
              <mxPoint x="265" y="435"/>
              <mxPoint x="535" y="435"/>
            </Array>
          </mxGeometry>
        </mxCell>
        <mxCell id="TrHiQEPKYiInoU6uG2qP-54" value="ICP on Z, Power&lt;br&gt;or Airgapped Env" style="rounded=1;fillColor=#004C99;strokeColor=none;shadow=0;gradientColor=none;fontStyle=0;html=1;strokeWidth=2;fontSize=14;fontColor=#FFFFFF;arcSize=7;perimeterSpacing=4;" vertex="1" parent="1">
          <mxGeometry x="190" y="289" width="150" height="70" as="geometry"/>
        </mxCell>
        <mxCell id="TrHiQEPKYiInoU6uG2qP-56" value="&lt;b&gt;Require full migration from OCP 3.x to 4.x&lt;/b&gt;" style="text;html=1;strokeColor=none;fillColor=none;align=center;verticalAlign=middle;whiteSpace=wrap;rounded=0;" vertex="1" parent="1">
          <mxGeometry x="1037" y="606" width="150" height="20" as="geometry"/>
        </mxCell>
        <mxCell id="TrHiQEPKYiInoU6uG2qP-59" value="&lt;b&gt;NO&lt;/b&gt;" style="text;html=1;strokeColor=none;fillColor=none;align=center;verticalAlign=middle;whiteSpace=wrap;rounded=0;" vertex="1" parent="1">
          <mxGeometry x="916.5" y="130" width="40" height="20" as="geometry"/>
        </mxCell>
      </root>
    </mxGraphModel>
  </diagram>
</mxfile>
